<?xml version="1.0" encoding="UTF-8" standalone="no"?>
<!DOCTYPE svg PUBLIC "-//W3C//DTD SVG 1.1//EN" "http://www.w3.org/Graphics/SVG/1.1/DTD/svg11.dtd">
<svg width="100%" height="100%" viewBox="0 0 16173 4849" version="1.1" xmlns="http://www.w3.org/2000/svg" xmlns:xlink="http://www.w3.org/1999/xlink" xml:space="preserve" xmlns:serif="http://www.serif.com/" style="fill-rule:evenodd;clip-rule:evenodd;stroke-linejoin:round;stroke-miterlimit:2;">
    <g transform="matrix(1,0,0,1,-182.435,-125.512)">
        <g transform="matrix(4.16667,0,0,4.16667,0,0)">
            <g transform="matrix(1,0,0,1,2990.78,313.623)">
                <path d="M0,-283.5L0,283.5L38.3,283.3L76.5,283L76.8,-0.3L77,-283.5L0,-283.5Z" style="fill:rgb(26,68,128);"/>
            </g>
        </g>
        <g transform="matrix(4.16667,0,0,4.16667,0,0)">
            <g transform="matrix(1,0,0,1,1052.28,138.623)">
                <path d="M0,-84.9C-18,-82 -29.8,-74.8 -35.5,-63.2C-45.9,-42.1 -38,-16.9 -17.9,-7.1C-5.9,-1.2 9.7,0.2 23.7,-3.4C47.2,-9.4 58.8,-24.3 57.2,-46.4C55.6,-70.1 39.8,-83.8 12.6,-84.9C7.3,-85.1 1.7,-85.1 0,-84.9" style="fill:rgb(26,68,128);"/>
            </g>
        </g>
        <g transform="matrix(4.16667,0,0,4.16667,0,0)">
            <g transform="matrix(1,0,0,1,2660.28,871.623)">
                <path d="M0,-687C49.7,-672.8 86.7,-653 114.1,-626C142,-598.4 157.6,-567.2 165.2,-524C167.7,-509.3 167.7,-465.3 165.2,-450C159.3,-415 148.8,-388.6 131.7,-366C109,-336 74.1,-314.1 33.8,-304.5C18.8,-300.9 -4.5,-297.5 -13.7,-297.5L-22.5,-297.5L-22.5,-692.6L-18.7,-691.9C-16.7,-691.6 -8.2,-689.3 0,-687M-90.5,-781.5C-90.5,-765.8 -90.5,-765.5 -92.7,-765.1C-94,-764.8 -100.6,-763.9 -107.5,-763C-163.3,-755.8 -211.8,-737 -257.2,-704.8C-268.2,-697 -279.1,-688 -292.3,-675.8L-302.5,-666.3L-300.3,-663.5C-299,-662 -289.5,-651.1 -279,-639.2L-260.1,-617.7L-254.2,-622.8C-220.3,-652.7 -179.3,-675.3 -137,-687.5C-121.6,-692 -104,-695.5 -96.7,-695.5L-90.5,-695.5L-90.7,-494.8L-91,-294L-133.7,-293.7L-176.5,-293.5L-176.5,-226.5L-90.5,-226.5L-90.5,110.5L-24.5,110.5L-24.5,-57.5C-24.5,-191.1 -24.2,-225.6 -23.2,-226C-22.6,-226.2 -14.8,-226.9 -6,-227.4C104,-234.8 179.1,-284.5 214.4,-373.3C228.2,-407.8 234.8,-445.7 234.8,-490C234.9,-537.3 226.3,-576.4 207.4,-614.5C194.8,-639.9 181.2,-658.8 161,-679.1C119.8,-720.4 63.2,-747.8 -7.9,-761C-15.6,-762.4 -22.4,-764 -23.2,-764.6C-24.2,-765.5 -24.5,-769.6 -24.5,-781.6L-24.5,-797.5L-90.5,-797.5L-90.5,-781.5Z" style="fill:rgb(26,68,128);"/>
            </g>
        </g>
        <g transform="matrix(4.16667,0,0,4.16667,0,0)">
            <g transform="matrix(1,0,0,1,519.284,662.523)">
                <path d="M0,-567.8C-52.7,-560.7 -97.5,-551.3 -139.5,-538.5C-241.9,-507.3 -324.9,-456.7 -383.2,-389.7C-423,-344.1 -453.8,-286.8 -466.4,-235.4C-473.7,-205.2 -475.5,-188.5 -475.5,-150C-475.5,-115.9 -474.9,-108.9 -470,-84.6C-462.7,-48.7 -447.9,1.6 -444.5,1.6C-442.4,1.6 -384.7,-20.1 -383.2,-21.4C-382.7,-21.8 -384.2,-27.7 -386.4,-34.5C-394.9,-60.5 -400.6,-85 -404.2,-110.4C-406.9,-129.4 -406.6,-175 -403.8,-193.4C-398,-230.6 -387.6,-262.2 -371.5,-291.8C-356.5,-319.3 -340.1,-340.9 -316.1,-364.9C-279.3,-401.6 -235.3,-430.6 -178,-455.9C-146.6,-469.8 -61.4,-495.3 -40.8,-497.1L-33.5,-497.7L-33.3,-331.8L-33,-165.9L-1,-165.7C16.6,-165.5 31.6,-165.8 32.2,-166.2C32.9,-166.6 33.9,-171.3 34.5,-176.9C37.3,-202.3 45.3,-226.9 61,-258.9C99.1,-336.6 164.5,-405.1 232,-438.4C259.1,-451.8 273.4,-456.2 307.9,-461.9C319.3,-463.8 328.9,-465.4 329.1,-465.4C329.3,-465.4 329.6,-376.6 329.7,-268.2L330,-70.9L395,-70.9L395.5,-291.9C396,-495.4 396.2,-513.4 397.8,-518.9C398.7,-522.2 399.5,-526.1 399.5,-527.7L399.5,-530.4L366.9,-530.4C334.4,-530.4 329.2,-530.1 295.5,-525.8C238.5,-518.5 171.6,-486.2 116,-438.9C92.1,-418.7 60.9,-384.7 43.8,-360.4L36,-349.3L35.4,-365.1C35,-373.8 34.7,-408.8 34.6,-442.9C34.6,-477 34.2,-519.4 33.8,-537.2L33.2,-569.4L21.6,-569.3C15.2,-569.2 5.5,-568.6 0,-567.8" style="fill:rgb(26,68,128);"/>
            </g>
        </g>
        <g transform="matrix(4.16667,0,0,4.16667,0,0)">
            <g transform="matrix(1,0,0,1,1426.28,605.323)">
                <path d="M0,-407.1C-40.4,-404.5 -81.5,-393.4 -113,-376.6C-121.8,-372 -140.6,-359.7 -146.5,-354.8C-181.6,-325.7 -204,-287.8 -214.1,-240.9C-216.5,-230.1 -216.8,-225.8 -217.2,-203.9C-217.8,-176.2 -217.2,-170.5 -212,-149.4C-206.5,-127.2 -201.9,-115.4 -192.1,-98.8C-152.7,-31.8 -75.1,2 27.5,-3C39.3,-3.6 54,-4.8 60,-5.7C82.3,-9 129.5,-22.8 129.5,-25.9C129.5,-27.6 117.6,-74.4 117,-75C116.9,-75.2 112.1,-73.7 106.4,-71.7C73,-60 33.9,-54.4 4,-57.1C-69.6,-63.8 -120.6,-104.8 -134.4,-168.3C-142,-203.4 -137.6,-243.8 -122.9,-273.5C-116,-287.5 -109.9,-295.9 -98.1,-307.7C-85.9,-319.9 -76.2,-326.8 -61,-334.2C-34.9,-346.9 -9.4,-352.2 25.7,-352.2C54.1,-352.2 78.3,-348.5 103.8,-340.2C112,-337.6 115.8,-336.7 116.1,-337.5C119.5,-346.6 131.3,-386.8 130.8,-387.3C129.1,-388.9 102.3,-397.2 89.5,-400C58.9,-406.9 31,-409.1 0,-407.1" style="fill:rgb(26,68,128);"/>
            </g>
        </g>
        <g transform="matrix(4.16667,0,0,4.16667,0,0)">
            <g transform="matrix(1,0,0,1,1849.28,592.423)">
                <path d="M0,-393.2C-12.1,-392.2 -26.4,-388.7 -38.1,-383.9C-64.6,-373.1 -88.2,-349.9 -103.2,-319.8C-109.5,-307.3 -110.7,-306.7 -113,-314.6C-114.2,-318.5 -114.7,-326.4 -115.1,-346.3C-115.3,-360.9 -115.8,-375.6 -116.1,-379.1L-116.7,-385.3L-183.5,-385.3L-183.5,0.7L-104.6,0.7L-104.2,-112.1C-103.8,-235.1 -104,-230 -97.9,-249.3C-80.7,-304 -31.8,-336.6 23,-329.8C29.8,-329 35.8,-328.3 36.4,-328.3C37.2,-328.3 37.5,-338.1 37.5,-360.8L37.5,-393.3L28.8,-393.3C23.9,-393.3 17.8,-393.5 15,-393.7C12.3,-393.9 5.5,-393.7 0,-393.2" style="fill:rgb(26,68,128);"/>
            </g>
        </g>
        <g transform="matrix(4.16667,0,0,4.16667,0,0)">
            <g transform="matrix(1,0,0,1,2190.98,547.923)">
                <path d="M0,-294.4C39.9,-287.3 71.4,-263.4 89.8,-226.3C107.3,-191 112.2,-148 103.3,-108.2C99.7,-92.5 95.8,-81.6 88.7,-67.7C70,-31.4 40.3,-8.6 0.8,-0.1C-11.3,2.5 -44.1,2.5 -56,-0.1C-103.8,-10.6 -137.6,-42.1 -153.7,-91.3C-159.9,-110.1 -162.3,-125.8 -162.3,-147.1C-162.2,-192.7 -148.7,-230.6 -123,-257.5C-101.6,-279.8 -76.2,-292 -42.7,-295.9C-33,-297 -10.4,-296.2 0,-294.4M-47.2,-348.1C-49.7,-347.9 -58.1,-346.9 -66,-345.8C-152.3,-333.6 -210.2,-284.4 -233.1,-203.8C-240.2,-178.8 -240.7,-175 -240.7,-143.8L-240.7,-115.3L-237.3,-99.8C-228.2,-57.5 -213.1,-29.4 -185,-2.3C-170.4,11.9 -158.4,20.3 -139.2,30C-106,46.8 -71.5,54.5 -29.7,54.5C12.4,54.5 48.2,46.6 82.3,29.8C115.5,13.4 140.1,-7.6 159,-35.7C188,-79 198.6,-138.8 187.3,-195.5C180,-231.9 165.6,-260.1 141.3,-285.6C107.3,-321.2 60.2,-342.3 2.3,-347.8C-7.8,-348.7 -36.5,-348.9 -47.2,-348.1" style="fill:rgb(26,68,128);"/>
            </g>
        </g>
        <g transform="matrix(4.16667,0,0,4.16667,0,0)">
            <g transform="matrix(1,0,0,1,3773.78,604.423)">
                <path d="M0,-399.8C-63.3,-391.3 -104.5,-361.1 -118.5,-312.8C-120.7,-305.2 -121,-302.2 -121,-289C-121,-272.9 -119.6,-265.5 -114.6,-254.1C-106.6,-236.1 -81.2,-212.4 -56.1,-199.5C-41.4,-191.9 -32.5,-188.3 -6.5,-179.3C56.4,-157.5 73,-145.9 78.5,-119.8C84.8,-90.1 67.8,-65.7 33.5,-55C13.6,-48.8 -14.7,-47.1 -39.5,-50.7C-62.4,-54 -88.8,-62.1 -107.8,-71.7L-115,-75.3L-116,-73.1C-117.4,-69.7 -134,-25.1 -134,-24.6C-134,-23.7 -114.8,-15.3 -104.9,-11.8C-76,-1.7 -53,1.8 -15.1,1.8C9.5,1.9 21.4,0.8 42,-3.3C76.5,-10.2 103.9,-23.3 122.6,-41.8C136.4,-55.3 144.9,-70.7 149.2,-89.6C152,-101.8 152.2,-125 149.6,-136.8C144.5,-159.9 133.3,-177.3 113.7,-192.4C96.6,-205.6 78.9,-214.2 37.4,-229.4C-10.5,-246.8 -27.8,-255.8 -38.3,-268.6C-52.9,-286.4 -52,-312.7 -36.3,-328.7C-21.1,-344.2 2.4,-351.1 35.9,-350C61,-349.2 84.3,-344.1 107.9,-334.2C113.1,-332.1 117.5,-330.4 117.6,-330.6C119,-331.9 136,-375.8 135.6,-376.9C134.9,-378.8 120,-385.7 109,-389.1C98.4,-392.5 80.9,-396.3 65,-398.8C50.4,-401.1 13.8,-401.7 0,-399.8" style="fill:rgb(26,68,128);"/>
            </g>
        </g>
        <g transform="matrix(4.16667,0,0,4.16667,0,0)">
            <g transform="matrix(1,0,0,1,1022.78,400.123)">
                <path d="M0,-193L0,193L78,193L78,-193L0,-193Z" style="fill:rgb(26,68,128);"/>
            </g>
        </g>
        <g transform="matrix(4.16667,0,0,4.16667,0,0)">
            <g transform="matrix(1,0,0,1,3166.08,482.223)">
                <path d="M0,-145.9C0.3,-53.2 0.7,-17.5 1.6,-11.6C10.1,44.3 30.9,80.3 67.3,102.2C96.3,119.6 137.9,126.2 181.4,120.3C221.9,114.9 258.9,94.9 287.3,63.1C299.9,49 298.6,50.2 299.7,51.9C300.4,52.9 300.7,53 300.7,52.1C300.7,51.5 301.3,50.9 302,50.9C303.9,50.9 304.7,65.3 304.7,97.6L304.7,122.9L371.7,122.9L371.7,-272.1L295.7,-272.1L295.7,-24.3L292.7,-15.2C286.8,3.1 278.6,17 266.1,29.9C249.2,47.4 229.1,58.1 203.8,62.9C170,69.4 137,64 115.4,48.5C95.6,34.5 82.9,10 78.2,-23.1C77,-31.9 76.7,-52.7 76.7,-152.9L76.7,-272.1L-0.4,-272.1L0,-145.9Z" style="fill:rgb(26,68,128);"/>
            </g>
        </g>
        <g transform="matrix(4.16667,0,0,4.16667,0,0)">
            <g transform="matrix(1,0,0,1,1297.28,856.623)">
                <path d="M0,-112.8C14.5,-108.3 25.3,-95.7 30.7,-76.8C33.9,-65.7 33.9,-45.5 30.6,-34C26,-17.6 17.2,-6.1 4.8,-0.2C-1.6,2.8 -2.6,3 -13.5,3C-24.3,3 -25.4,2.8 -31.6,-0.1C-43.9,-6 -52.2,-16 -57.2,-30.9C-59.6,-38.3 -59.9,-40.4 -59.9,-54.5C-60,-66.3 -59.6,-71.5 -58.2,-76.5C-50.2,-106 -26.2,-120.9 0,-112.8M-23.7,-139.4C-27.9,-139 -35.6,-137.2 -40.7,-135.5C-68.4,-126.3 -86.5,-105.3 -93,-74.9C-95.3,-64.3 -95.3,-44.7 -93,-34C-87.7,-9.1 -73.7,9.9 -53.3,19.9C-39.1,26.9 -33.8,28 -14.5,28C4.8,27.9 12.2,26.3 26.4,19C47.5,8.1 61,-11.4 66,-38C68.5,-51.2 67.6,-71.8 64,-84C56.2,-110.3 38.5,-128.6 13.3,-136.4C7.6,-138.1 -11.2,-140.8 -14.9,-140.4C-15.5,-140.3 -19.5,-139.9 -23.7,-139.4" style="fill:rgb(32,132,198);"/>
            </g>
        </g>
        <g transform="matrix(4.16667,0,0,4.16667,0,0)">
            <g transform="matrix(1,0,0,1,1477.38,883.623)">
                <path d="M0,-165C-29.1,-159 -50.2,-143.9 -61.6,-121C-67.1,-109.9 -69.6,-99.4 -70.3,-85C-71.5,-58.7 -64.1,-37.7 -48.1,-22C-37.5,-11.6 -26.9,-5.9 -9.8,-1.4C-0.1,1.2 25,2.3 37.6,0.6C47.6,-0.7 60.2,-3.9 61.7,-5.4C62.4,-6.1 62,-9.8 60.4,-17.5C59.1,-23.6 57.8,-28.8 57.5,-29C57.1,-29.2 53.8,-28.5 50,-27.5C46.2,-26.4 38.5,-25.1 32.8,-24.4C-8.7,-20 -36.5,-42.9 -36.6,-81.8C-36.7,-119.7 -11.2,-143.2 27.9,-141.1C33.4,-140.8 41.5,-139.6 45.9,-138.4C58.3,-135.1 57.2,-134.4 61,-147.5C65,-161.1 65.4,-160.3 52,-163.6C40.4,-166.5 11.1,-167.3 0,-165" style="fill:rgb(32,132,198);"/>
            </g>
        </g>
        <g transform="matrix(4.16667,0,0,4.16667,0,0)">
            <g transform="matrix(1,0,0,1,1784.28,885.823)">
                <path d="M0,-167.2C-18.5,-163.2 -32,-153.4 -38.8,-138.9C-41.7,-132.8 -42,-131.3 -42,-122.2C-42,-113 -41.7,-111.6 -38.8,-105.4C-31.9,-90.9 -20.9,-83.4 11.2,-71.3C20.4,-67.8 28.3,-62.6 31.5,-58C36.8,-50.2 34.8,-38.1 27.2,-32.3C20.9,-27.5 16.1,-26.3 2.5,-26.4C-11.2,-26.4 -20.4,-28.3 -31.6,-33.3C-34.9,-34.8 -37.8,-35.7 -38.1,-35.4C-38.4,-35.1 -40.2,-29.5 -42.1,-23C-46,-9.2 -46.4,-10 -34.2,-6.2C-9,1.8 20.9,1 40.2,-8.1C50.5,-13 59.2,-21.5 63.6,-31C66.8,-37.9 67,-38.7 67,-49.8C67,-61.1 66.9,-61.4 63.2,-68.9C56.7,-82.1 46,-89.7 19.8,-99.8C5.5,-105.2 -2.7,-109.9 -6.2,-114.5C-8.9,-117.9 -10.2,-124.7 -9.1,-129.1C-8.1,-133 -3,-138.2 2.3,-140.7C11.7,-145.2 32.4,-144.3 46.6,-138.7C49.3,-137.6 52,-136.7 52.4,-136.7C53.2,-136.7 60.5,-158.1 60.5,-160.4C60.5,-161.7 49.3,-165.5 40.2,-167.2C30.5,-169 8.3,-169 0,-167.2" style="fill:rgb(32,132,198);"/>
            </g>
        </g>
        <g transform="matrix(4.16667,0,0,4.16667,0,0)">
            <g transform="matrix(1,0,0,1,1942.28,883.323)">
                <path d="M0,-164.7C-18.6,-160.6 -32,-151.2 -38.8,-137.3C-41.8,-131.1 -42,-130.1 -42,-119.7C-42,-109.9 -41.7,-108.1 -39.3,-103C-36.1,-96.2 -29.9,-89.2 -22.5,-84.2C-15,-79.1 -10.9,-77.2 2.5,-72.2C8.8,-69.8 16.2,-66.8 18.8,-65.5C29.6,-60.1 35.3,-51.7 34.3,-42.7C32.1,-23.5 3.3,-17.6 -28.8,-29.7C-33.9,-31.6 -38.3,-32.8 -38.6,-32.4C-38.9,-32 -40.6,-26.5 -42.4,-20.2C-46.2,-6.8 -46.6,-7.6 -34.2,-3.7C-20.4,0.7 -9.6,2.1 6,1.5C27.9,0.7 42,-4.2 53.4,-14.8C66.5,-26.9 70.9,-46.3 64.5,-63.4C59.3,-77.5 47.6,-86.4 21.2,-96.6C1.7,-104.1 -5.9,-108.9 -8.5,-115.2C-10.2,-119.3 -9.3,-128.2 -6.9,-131.4C-2.1,-137.8 6.9,-141.2 19.3,-141.2C27.7,-141.2 40.1,-138.9 46.4,-136.1C48.8,-135.1 51.3,-134.2 52,-134.2C52.6,-134.2 54.7,-139 56.5,-145C58.3,-150.9 60,-156.3 60.2,-157C60.9,-158.8 52.8,-162.1 42.1,-164.3C31.3,-166.5 9.3,-166.8 0,-164.7" style="fill:rgb(32,132,198);"/>
            </g>
        </g>
        <g transform="matrix(4.16667,0,0,4.16667,0,0)">
            <g transform="matrix(1,0,0,1,2422.28,883.723)">
                <path d="M0,-165.5C-42.8,-160.3 -71.4,-136.3 -79.1,-98.9C-80.3,-93 -80.6,-87.7 -80.2,-77.1C-79.6,-60.8 -78.2,-54.8 -71.9,-41.7C-68.1,-33.7 -66.1,-30.9 -58.7,-23.6C-46,-11 -32.9,-4.4 -13.1,-0.9C-2.2,1 21.3,1.2 33.5,-0.5C42.4,-1.7 60,-5.7 64.8,-7.5L67.5,-8.6L67.5,-91.6L5.5,-91.6L5.5,-66.6L35.5,-66.6L35.5,-27.6L32.8,-26.4C31.2,-25.8 24.2,-25.1 17,-24.9C-5.2,-24.1 -18.6,-28.5 -30.5,-40.5C-41.7,-51.8 -46.5,-64.5 -46.5,-82.6C-46.5,-118.9 -22.9,-140.6 16.3,-140.6C27.4,-140.6 40.1,-138.7 48.7,-135.7C51.9,-134.6 54.6,-134 54.9,-134.4C56.3,-136.8 61.5,-158 60.8,-158.6C59.3,-159.9 50.1,-162.6 41.6,-164.1C30.7,-166 10,-166.7 0,-165.5" style="fill:rgb(32,132,198);"/>
            </g>
        </g>
        <g transform="matrix(4.16667,0,0,4.16667,0,0)">
            <g transform="matrix(1,0,0,1,2748.58,786.423)">
                <path d="M0,29.9C4.2,34.5 13.6,44.3 21,51.8L34.4,65.5L31,68.1C23.6,73.7 18.6,75.2 6.7,75.2C-3.3,75.2 -4.8,75 -9.4,72.5C-18.3,67.8 -23.7,60.1 -24.5,50.8C-25.1,43.9 -23.7,38.4 -19.9,32.7C-17.5,29.1 -9.5,21.7 -8.1,21.7C-7.8,21.7 -4.2,25.4 0,29.9M21.3,-45.8C25.2,-42.1 27.2,-37.6 27.2,-32.3C27.2,-24 22.2,-16.8 10.8,-9.1L4.9,-5L2,-8.4C0.5,-10.3 -2.2,-14.6 -3.9,-18C-6.7,-23.5 -7,-25 -6.6,-31.1C-5.9,-43.6 0.3,-49.6 11.9,-49C17.2,-48.8 18.6,-48.3 21.3,-45.8M-3.7,-67.7C-20.5,-63.2 -32.5,-50.9 -35.8,-34.8C-38,-24 -35.2,-12.5 -27.4,-0.9L-23.2,5.4L-29.6,9.3C-37.7,14.2 -47.8,24.8 -51.2,32C-59.8,50.3 -56.2,70.7 -41.8,84C-34.7,90.6 -28.2,94 -16.8,96.8C-5,99.8 15,99.2 26.4,95.5C33,93.3 42.7,88.5 48.4,84.4C49.9,83.4 51.1,84.1 57,90L63.8,96.7L82,96.7C92,96.7 100.2,96.3 100.2,95.9C100.2,95.5 97.9,92.9 95.1,90.2C92.3,87.4 86,80.8 81,75.4L71.9,65.6L74,62.9C79,56.6 86.5,43.7 89.3,36.2C92,29.3 98.2,7.2 98.2,4.6C98.2,4.1 91.7,3.7 83.7,3.7L69.2,3.7L68.6,6.4C65.8,19 62.5,29.5 58.7,37.4C56.3,42.5 54.1,46.7 53.9,46.7C53.3,46.7 20.8,11.8 20.4,10.7C20.2,10.2 23.2,8.3 26.9,6.3C46.5,-4 56.1,-18.1 55,-35.1C53.9,-51.4 45,-62.2 28.1,-67.4C20.7,-69.7 4.3,-69.9 -3.7,-67.7" style="fill:rgb(32,132,198);"/>
            </g>
        </g>
        <g transform="matrix(4.16667,0,0,4.16667,0,0)">
            <g transform="matrix(1,0,0,1,3815.78,884.723)">
                <path d="M0,-167C-18.5,-164.9 -30.2,-161.6 -43,-155C-63,-144.7 -77.3,-126.9 -83.1,-105.1C-86,-94.2 -86.3,-72.7 -83.7,-61.1C-81.1,-49.7 -73.5,-34.5 -66.5,-26.9C-55.6,-14.9 -40,-6.5 -21,-2.5C-0.5,1.7 32.9,-0.2 54.5,-7L61.5,-9.2L61.8,-50.9L62,-92.6L-0.1,-92.6L0.2,-80.4L0.5,-68.1L15.8,-67.8L31,-67.5L30.8,-47.8L30.5,-28.1L25.5,-27C17.1,-25 -1.6,-25.3 -10.4,-27.6C-30.5,-32.7 -44.3,-46.1 -49.6,-65.6C-51.8,-73.6 -52,-91.6 -50.1,-99.6C-45.5,-118.4 -32.5,-132.1 -13.6,-138.2C1.9,-143.2 28.9,-142.4 44.2,-136.6C47,-135.5 49.5,-134.8 49.7,-135C49.9,-135.2 51.6,-140.6 53.5,-147.2C56,-156 56.6,-159.3 55.7,-159.8C49,-164.2 14.3,-168.7 0,-167" style="fill:rgb(32,132,198);"/>
            </g>
        </g>
        <g transform="matrix(4.16667,0,0,4.16667,0,0)">
            <g transform="matrix(1,0,0,1,178.284,860.623)">
                <path d="M0,-116.1C19.5,-110.9 32.7,-97.7 37.1,-78.9C39.6,-68.2 38.6,-48.5 35.1,-38.2C26.4,-12.4 5.8,-0.5 -29.5,-0.5C-34.2,-0.5 -39,-0.8 -40.2,-1.1L-42.5,-1.7L-42.5,-117.4L-38.2,-117.8C-29.5,-118.8 -6,-117.7 0,-116.1M-57.5,-141.5C-61.6,-141.1 -67.4,-140.4 -70.2,-140L-75.5,-139.3L-75.5,-59C-75.5,12.3 -75.3,21.4 -74,21.9C-73.1,22.2 -63.5,22.9 -52.6,23.5C11.7,26.8 47.9,12.5 64.6,-23C76.4,-48.2 75.9,-82.1 63.3,-104.5C59.4,-111.4 45.8,-124.9 38.2,-129.4C30,-134.2 14.8,-139.1 2.4,-140.9C-8.8,-142.6 -43,-142.9 -57.5,-141.5" style="fill:rgb(32,132,198);"/>
            </g>
        </g>
        <g transform="matrix(4.16667,0,0,4.16667,0,0)">
            <g transform="matrix(1,0,0,1,941.984,856.123)">
                <path d="M0,-110.7C10.3,-105.6 15.7,-95.6 14.4,-84.3C12.9,-71.1 5.5,-63.1 -8.7,-59.4C-13.7,-58 -32.7,-57.5 -35.6,-58.6C-37,-59.1 -37.2,-62.5 -37.2,-86C-37.2,-106.5 -36.9,-113 -35.9,-113.4C-35.3,-113.7 -28.2,-113.8 -20.2,-113.7C-6.6,-113.5 -5.4,-113.3 0,-110.7M-53.2,-137C-57.3,-136.6 -62.6,-135.9 -64.9,-135.5L-69.2,-134.8L-69.2,27L-37.2,27L-37.2,-34.3L-29.8,-33.7C-19.8,-33 -3.7,-34.5 5.4,-37C32.5,-44.4 46.8,-62 46.8,-88.1C46.8,-112.2 33.5,-128.3 7.9,-135.2C1.4,-137 -3.1,-137.3 -22.7,-137.6C-35.3,-137.7 -49.1,-137.5 -53.2,-137" style="fill:rgb(32,132,198);"/>
            </g>
        </g>
        <g transform="matrix(4.16667,0,0,4.16667,0,0)">
            <g transform="matrix(1,0,0,1,1106.78,857.923)">
                <path d="M0,-114.3C11.1,-110.4 17,-102.6 17,-92C17,-80.4 12.8,-73.8 2.2,-68.6C-4.3,-65.4 -4.8,-65.3 -19.7,-64.9L-35,-64.6L-34.8,-89.9L-34.5,-115.3L-29.5,-116C-21.6,-117 -5,-116.1 0,-114.3M-50.5,-138.8C-54.9,-138.3 -60.4,-137.6 -62.7,-137.3L-67,-136.7L-67,25.2L-35,25.2L-35,-41.8L-25.5,-41.8C-13.8,-41.8 -7.5,-40.5 -1.7,-36.8C4.3,-33 8,-25.4 12.5,-7.3C14.5,0.4 17.5,10.9 19.2,15.9L22.3,25.2L39.2,25.2C48.4,25.2 56,25.1 56,24.9C56,24.8 55.1,22.2 53.9,19.2C52.8,16.2 49.4,4.7 46.4,-6.3C38.5,-35 33.9,-44 23.8,-49.7L18.9,-52.5L24.5,-55.3C41.8,-63.7 51.7,-81.9 49.1,-100.3C47,-114.8 38.8,-126 25.6,-132.2C13.4,-138 6.4,-139.1 -19.5,-139.4C-32.1,-139.5 -46.1,-139.2 -50.5,-138.8" style="fill:rgb(32,132,198);"/>
            </g>
        </g>
        <g transform="matrix(4.16667,0,0,4.16667,0,0)">
            <g transform="matrix(1,0,0,1,365.284,844.123)">
                <path d="M0,-86C1.5,-80.2 6.1,-65.9 10.2,-54.1C14.2,-42.3 17.5,-32.3 17.5,-31.8C17.5,-31.4 8,-31 -3.6,-31C-20.1,-31 -24.6,-31.3 -24.2,-32.3C-21.4,-39.8 -8.2,-81.7 -6.5,-88.8C-5.3,-93.9 -3.9,-97.8 -3.5,-97.3C-3.2,-96.9 -1.6,-91.8 0,-86M-50.4,-44.3C-65.5,0.2 -78,37.1 -78.3,37.7C-78.6,38.7 -74.9,39 -61.8,39L-44.8,39L-43.6,34.7C-42.9,32.4 -39.6,22.1 -36.3,11.7L-30.2,-7L-3.1,-6.8L24,-6.5L39.2,38.5L56.3,38.8C69.7,39 73.5,38.8 73.5,37.8C73.5,37.1 61,0.2 45.8,-44.2L18,-125L-23.1,-125L-50.4,-44.3Z" style="fill:rgb(32,132,198);"/>
            </g>
        </g>
        <g transform="matrix(4.16667,0,0,4.16667,0,0)">
            <g transform="matrix(1,0,0,1,449.184,881.823)">
                <path d="M0,-161.4C-0.2,-160.7 -0.3,-154.9 -0.2,-148.6L0.1,-137.2L24.9,-136.9L49.6,-136.7L49.6,1.3L81.6,1.3L81.6,-136.7L131.6,-136.7L131.6,-162.7L66.1,-162.7C12.9,-162.7 0.4,-162.5 0,-161.4" style="fill:rgb(32,132,198);"/>
            </g>
        </g>
        <g transform="matrix(4.16667,0,0,4.16667,0,0)">
            <g transform="matrix(1,0,0,1,673.784,841.523)">
                <path d="M0,-80.8C2.1,-73.2 6.9,-58.4 10.5,-48.1C14.1,-37.7 17,-29.1 17,-28.8C17,-28.6 7.6,-28.4 -4,-28.4C-15.5,-28.4 -25,-28.8 -25,-29.2C-25,-29.6 -22.1,-38.7 -18.5,-49.4C-12.7,-66.7 -10.1,-75.5 -6,-91.3C-5.4,-93.6 -4.7,-95.4 -4.4,-95.2C-4.2,-94.9 -2.2,-88.5 0,-80.8M-28.3,-109.2C-40.2,-74.7 -79,40 -79,40.8C-79,41.3 -71.5,41.5 -62.4,41.4L-45.7,41.1L-38.5,18.6L-31.2,-3.9L23.3,-3.9L30.9,18.8L38.5,41.6L55.7,41.6C65.2,41.6 73,41.2 73,40.8C73,40.3 60.5,3.5 45.1,-41L17.3,-121.9L-3.2,-122.2L-23.7,-122.4L-28.3,-109.2Z" style="fill:rgb(32,132,198);"/>
            </g>
        </g>
        <g transform="matrix(4.16667,0,0,4.16667,0,0)">
            <g transform="matrix(1,0,0,1,1590.78,801.123)">
                <path d="M0,-82L0,82L105,82L105,56L33,56L33,10L65.3,9.8L97.5,9.5L97.8,-2.8L98.1,-15L33,-15L33,-57L102.1,-57L101.8,-69.3L101.5,-81.5L50.8,-81.8L0,-82Z" style="fill:rgb(32,132,198);"/>
            </g>
        </g>
        <g transform="matrix(4.16667,0,0,4.16667,0,0)">
            <g transform="matrix(1,0,0,1,2061.98,801.423)">
                <path d="M0,-0.6L0.3,81.2L16.6,81.5L32.8,81.7L32.8,-82.3L-0.2,-82.3L0,-0.6Z" style="fill:rgb(32,132,198);"/>
            </g>
        </g>
        <g transform="matrix(4.16667,0,0,4.16667,0,0)">
            <g transform="matrix(1,0,0,1,2155.78,801.223)">
                <path d="M0,-82.1L0,82L14.8,81.7L29.5,81.4L29.8,43.1C29.9,22 29.6,-6.1 29.2,-19.4C28.7,-32.7 28.4,-43.8 28.6,-43.9C28.7,-44.1 31.8,-38.5 35.4,-31.4C44.4,-13.7 54,2.5 80.8,44.9L103.8,81.4L120.4,81.7L137,81.9L137,-82.1L106.7,-82.1L107.4,-29.9C107.8,-1.1 108.4,26.1 108.8,30.7C109.2,35.2 109.4,38.9 109.3,38.9C109.1,38.9 106.1,33.2 102.6,26.1C93.4,7.8 88.7,-0.2 61.2,-43.3L36.5,-82.1L0,-82.1Z" style="fill:rgb(32,132,198);"/>
            </g>
        </g>
        <g transform="matrix(4.16667,0,0,4.16667,0,0)">
            <g transform="matrix(1,0,0,1,2943.78,870.123)">
                <path d="M0,-151L0,-125L49,-125L49,13L82,13L82,-125L131,-125L131,-151L0,-151Z" style="fill:rgb(32,132,198);"/>
            </g>
        </g>
        <g transform="matrix(4.16667,0,0,4.16667,0,0)">
            <g transform="matrix(1,0,0,1,3121.78,801.123)">
                <path d="M0,-82L0,82L32,82L32,-82L0,-82Z" style="fill:rgb(32,132,198);"/>
            </g>
        </g>
        <g transform="matrix(4.16667,0,0,4.16667,0,0)">
            <g transform="matrix(1,0,0,1,3214.88,807.923)">
                <path d="M0,-13.6C-2.9,27.8 -5.5,64.7 -5.8,68.4L-6.4,75.2L8.7,75.2C23.6,75.2 23.9,75.2 24.3,72.9C24.9,70.3 28.5,4.8 29.9,-29.3C30.5,-42.5 31.1,-54 31.2,-54.8C31.4,-55.6 32.8,-51.1 34.3,-44.8C39.3,-25 44.6,-7.6 58.2,33.4L71.3,73.2L96.4,73.2L109.3,36.9C124.9,-7.1 134.5,-35.2 138.4,-47.8L141.3,-57.3L142.1,-32.8C142.4,-19.3 143.7,9.5 144.8,31.4C146,53.2 146.9,72 146.9,73.1C146.9,75.1 147.3,75.2 163,75.2L179,75.2L178.4,67.4C177.8,60 168.9,-85.6 168.9,-87.8C168.9,-88.4 161.7,-88.8 148,-88.8L127,-88.8L124.9,-83.1C107.5,-36.8 92.4,7.8 87.8,26.4C86.5,31.9 85.4,31.9 84.4,26.5C82.6,16.6 70.7,-22 59.9,-53.3C53.3,-72.4 47.9,-88.2 47.9,-88.4C47.9,-88.6 38.3,-88.8 26.6,-88.8L5.3,-88.8L0,-13.6Z" style="fill:rgb(32,132,198);"/>
            </g>
        </g>
        <g transform="matrix(4.16667,0,0,4.16667,0,0)">
            <g transform="matrix(1,0,0,1,3448.78,801.123)">
                <path d="M0,-82L0,82L16.3,81.8L32.5,81.5L32.8,-0.3L33,-82L0,-82Z" style="fill:rgb(32,132,198);"/>
            </g>
        </g>
        <g transform="matrix(4.16667,0,0,4.16667,0,0)">
            <g transform="matrix(1,0,0,1,3539.98,801.523)">
                <path d="M0,-0.7L0.3,81.1L15.1,81.4L30,81.7L29.6,18.8L29.3,-44.1L36.9,-29.5C47,-10.2 51.3,-2.9 80,42.8L104.3,81.5L121.1,81.6L137.8,81.6L137.8,-82.4L107.6,-82.4L108.2,-27.2C108.5,3.2 109.1,30.6 109.3,33.6L109.9,39.1L101,22.1C90.1,1.2 87.6,-3.1 59.6,-46.9L37.2,-81.9L18.5,-82.2L-0.2,-82.4L0,-0.7Z" style="fill:rgb(32,132,198);"/>
            </g>
        </g>
        <g transform="matrix(4.16667,0,0,4.16667,0,0)">
            <g transform="matrix(1,0,0,1,1901.78,1083.62)">
                <path d="M0,-69.5L0,69.5L28,69.5L28,-69.5L0,-69.5Z" style="fill:rgb(26,68,128);"/>
            </g>
        </g>
        <g transform="matrix(4.16667,0,0,4.16667,0,0)">
            <g transform="matrix(1,0,0,1,1406.68,1040.42)">
                <path d="M0,-20C-12,-12 -6.2,4.7 8.6,4.7C20.1,4.7 27.4,-6 22.3,-15.2C18.5,-22.2 7,-24.7 0,-20" style="fill:rgb(26,68,128);"/>
            </g>
        </g>
        <g transform="matrix(4.16667,0,0,4.16667,0,0)">
            <g transform="matrix(-0.669352,0.742946,0.742946,0.669352,2294.63,1034.09)">
                <path d="M3.29,-24.964C13.14,-28.876 23.326,-19.565 20.608,-9.227C18.604,-1.475 10.693,4.318 3.29,3.571C-0.977,3.227 -6.393,-1.518 -7.535,-5.778C-9.397,-12.974 -4.338,-21.876 3.29,-24.964" style="fill:rgb(26,68,128);"/>
            </g>
        </g>
        <g transform="matrix(4.16667,0,0,4.16667,0,0)">
            <g transform="matrix(-0.478328,0.878181,0.878181,0.478328,2543.88,1033.42)">
                <path d="M-0.724,-26.47C6.265,-30.52 14.119,-28.634 17.515,-22.115C23.891,-9.988 11.45,5.327 -0.724,0.29C-5.705,-1.854 -8.94,-6.577 -8.888,-11.9C-8.795,-17.088 -5.016,-24.025 -0.724,-26.47" style="fill:rgb(26,68,128);"/>
            </g>
        </g>
        <g transform="matrix(4.16667,0,0,4.16667,0,0)">
            <g transform="matrix(1,0,0,1,2213.28,1154.62)">
                <path d="M0,-123.4C-1.6,-123 -7.4,-121.7 -12.7,-120.5L-22.5,-118.3L-22.5,-96.5L-37.5,-96.5L-37.5,-77.5L-22.6,-77.5L-22.3,-48.8C-22,-20.9 -21.9,-19.8 -19.6,-14.7C-16.7,-8.3 -11,-3.2 -4.3,-0.9C-0.4,0.4 3.5,0.6 13.4,0.3C20.3,0.1 26.6,-0.4 27.3,-0.8C28.1,-1.4 28.5,-4.6 28.5,-11L28.5,-20.3L20.7,-20.2C5.3,-19.8 4.5,-21.6 4.5,-54L4.5,-77.5L29.5,-77.5L29.5,-96.5L4.5,-96.5L4.5,-109.9C4.5,-117.3 4.2,-123.6 3.8,-123.8C3.3,-124 1.7,-123.9 0,-123.4" style="fill:rgb(26,68,128);"/>
            </g>
        </g>
        <g transform="matrix(4.16667,0,0,4.16667,0,0)">
            <g transform="matrix(1,0,0,1,1257.08,1151.72)">
                <path d="M0,-94.2C-5.4,-92.5 -10,-89.6 -14.2,-85.2C-16.1,-83.3 -18,-81.9 -18.5,-82.2C-18.9,-82.5 -19.3,-85.2 -19.3,-88.2L-19.3,-93.6L-43.6,-93.6L-43,-80.9C-42.6,-73.8 -42.3,-52.5 -42.3,-33.4L-42.3,1.4L-15.3,1.4L-15.3,-29.3C-15.3,-58.4 -15.2,-60.2 -13.2,-64.3C-7.7,-75.6 7.3,-78.9 15.6,-70.5C20.6,-65.5 21,-62.7 21.4,-29.4L21.9,1.4L48.7,1.4L48.7,-29.6C48.7,-64 48.8,-64.9 55,-70.3C65.1,-79.2 79.8,-75.4 83.8,-62.9C84.6,-60.4 85.2,-48.8 85.4,-28.9L85.9,1.4L112.7,1.4L112.7,-25.9C112.7,-40.8 112.3,-56.7 111.8,-61.1C110,-76.5 104.3,-86.2 93.6,-92.1C88.5,-95 87.6,-95.1 76.2,-95.1C64.6,-95.1 64,-95 58.1,-91.9C54.7,-90.1 50,-86.7 47.6,-84.3L43.3,-80L37.2,-86.1C29.7,-93.8 24.9,-95.6 12.8,-95.5C8.1,-95.5 2.3,-94.9 0,-94.2" style="fill:rgb(26,68,128);"/>
            </g>
        </g>
        <g transform="matrix(4.16667,0,0,4.16667,0,0)">
            <g transform="matrix(1,0,0,1,1493.98,1152.62)">
                <path d="M0,-94.5C-26.1,-87.6 -41.8,-64.7 -38.2,-38.9C-35.9,-22 -27.3,-10 -12.7,-3C-3.6,1.3 3.4,2.7 16.6,2.6C29.8,2.6 45.8,-0.2 45.8,-2.5C45.8,-4.5 42.5,-19 41.8,-19.8C41.4,-20.2 38.5,-19.9 35.3,-19C27.5,-17 15.4,-17.1 8.8,-19.2C1.4,-21.6 -5.5,-28.1 -8.2,-35.3C-11,-42.7 -10.7,-54.9 -7.5,-61C-4.4,-67 2.6,-72.9 8.9,-75C15.7,-77.3 27.6,-77.3 35.3,-75C38.5,-74.1 41.1,-73.5 41.2,-73.7C42.2,-75 45.8,-91.6 45.4,-92.4C45,-92.9 41.7,-94.1 37.8,-94.9C28,-97.2 9.4,-96.9 0,-94.5" style="fill:rgb(26,68,128);"/>
            </g>
        </g>
        <g transform="matrix(4.16667,0,0,4.16667,0,0)">
            <g transform="matrix(1,0,0,1,1603.08,1150.62)">
                <path d="M0,-92C-4.7,-89.6 -12.1,-82.7 -15,-77.9C-16,-76.3 -16.2,-77.4 -16.2,-84.3L-16.3,-92.5L-40.3,-92.5L-40.3,2.5L-12.4,2.5L-12.1,-26.3C-11.8,-53.5 -11.7,-55.2 -9.6,-59C-5.1,-67.5 1.1,-70.9 12,-70.9L19.7,-71L19.7,-94.5L12.4,-94.5C6.6,-94.5 4.1,-94 0,-92" style="fill:rgb(26,68,128);"/>
            </g>
        </g>
        <g transform="matrix(4.16667,0,0,4.16667,0,0)">
            <g transform="matrix(1,0,0,1,1702.48,1135.22)">
                <path d="M0,-58.3C5.1,-55.6 7.7,-52.7 10.8,-45.9C18,-30.2 13.3,-9.3 0.9,-1.6C-3.3,1 -5,1.4 -10.6,1.4C-22.4,1.3 -30,-4.9 -33.9,-17.5C-36.3,-25.4 -36,-36.2 -33.2,-44.3C-28.4,-58.1 -12.6,-64.7 0,-58.3M-26.4,-77.7C-44.3,-73.3 -58.7,-59.3 -62.7,-42.3C-65.7,-29.6 -63.4,-13.1 -57.4,-2.8C-51.5,7.3 -37.8,16.4 -25,18.9C-14.9,20.9 2.3,19.7 10.8,16.5C24,11.5 34.7,1.2 39.4,-10.9C42.5,-18.8 43.2,-36.4 40.8,-44.7C38.3,-53.4 34.7,-59.4 28.3,-65.5C18,-75.4 7.2,-79.2 -10.3,-79C-16.3,-79 -23.6,-78.4 -26.4,-77.7" style="fill:rgb(26,68,128);"/>
            </g>
        </g>
        <g transform="matrix(4.16667,0,0,4.16667,0,0)">
            <g transform="matrix(1,0,0,1,1832.58,1170.72)">
                <path d="M0,-93.1C9.8,-89 15.4,-78.7 15.4,-65.1C15.4,-51.2 8.9,-39.7 -0.6,-36.5C-6.7,-34.4 -15.6,-34.8 -21.1,-37.5C-30.2,-41.9 -33.7,-49.2 -33.8,-63.7C-33.8,-79.5 -29.6,-88.1 -19.4,-92.7C-14.3,-95 -5.1,-95.2 0,-93.1M-15.3,-113.2C-21.9,-111.1 -27.7,-107.7 -32.4,-103.4L-36.8,-99.3L-36.8,-103.7C-36.8,-112.9 -36.5,-112.6 -50.1,-112.6L-62.1,-112.6L-61.5,-101.9C-61.1,-96.1 -60.8,-65.9 -60.8,-34.9L-60.8,21.4L-33.8,21.4L-33.8,-26.8L-30.2,-23.6C-23.1,-17.4 -18.8,-16.1 -4.3,-16.1C8.7,-16.1 8.7,-16.1 16.5,-19.8C26,-24.4 33.6,-31.6 37.9,-40.4C42.3,-49.2 43.5,-56 43,-69.7C42.6,-81.1 42.5,-81.7 38.4,-89.9C33.5,-99.8 26.6,-106.8 17.4,-111.2C12.3,-113.7 10.4,-114 0.2,-114.3C-7.3,-114.5 -12.7,-114.1 -15.3,-113.2" style="fill:rgb(26,68,128);"/>
            </g>
        </g>
        <g transform="matrix(4.16667,0,0,4.16667,0,0)">
            <g transform="matrix(1,0,0,1,2110.58,1153.52)">
                <path d="M0,-95.5C-7.3,-93.1 -11.7,-90.3 -16.3,-85.3C-21.2,-79.8 -23,-75.2 -23.1,-67.9C-23.2,-54.7 -14.6,-46.4 6.5,-38.9C19.6,-34.2 23.9,-30 21.6,-23.8C19.7,-18.4 16.1,-16.9 5.4,-17C-2.5,-17 -5.7,-17.5 -11.8,-19.7C-15.9,-21.2 -19.7,-22.5 -20.1,-22.6C-21,-22.9 -25.8,-8.4 -25.8,-5.7C-25.8,-2.1 -9,1.8 6.2,1.7C19,1.7 26.7,0.1 34.5,-4.2C51.2,-13.2 54.1,-36 40.1,-47.9C36,-51.3 27.5,-55.5 19.2,-58.3C6.4,-62.5 2,-66.5 3.5,-72.6C3.9,-74 5.4,-76 6.9,-77C11.1,-79.8 24.6,-79.6 33,-76.5C36.5,-75.2 39.5,-74.4 39.6,-74.5C39.8,-74.7 41.1,-78.7 42.5,-83.4C44.5,-89.7 44.8,-92 43.9,-92.6C39.9,-95.2 31.7,-96.7 19.2,-97C8,-97.3 4.7,-97.1 0,-95.5" style="fill:rgb(26,68,128);"/>
            </g>
        </g>
        <g transform="matrix(4.16667,0,0,4.16667,0,0)">
            <g transform="matrix(1,0,0,1,2371.08,1151.22)">
                <path d="M0,-93.7C-5.4,-92 -10,-89.1 -14.2,-84.7C-16.1,-82.7 -18.1,-81.1 -18.5,-81.1C-18.9,-81.1 -19.3,-83.8 -19.3,-87.1L-19.3,-93.1L-43.6,-93.1L-43,-76.4C-42.6,-67.3 -42.3,-45.9 -42.3,-28.9L-42.3,1.9L-16.4,1.9L-16.1,-28.4C-15.8,-57.8 -15.7,-58.7 -13.4,-63.4C-7.7,-75.1 7.3,-78.6 15.4,-70.1C20.7,-64.5 21,-62.2 21.5,-28.9L21.9,1.9L47.7,1.9L47.7,-26.1C47.7,-59.3 48.2,-62.9 54.1,-68.7C64.1,-78.8 78.6,-76 83.3,-63.2C84.7,-59.4 85.1,-53.6 85.5,-28.4L85.9,1.9L111.8,1.9L111.5,-33.4C111.2,-67.4 111.1,-68.8 108.9,-74.2C106,-81.5 100.3,-87.9 93.6,-91.6C88.5,-94.5 87.6,-94.6 76.2,-94.6C64.6,-94.6 64,-94.5 57.9,-91.3C54.4,-89.5 49.5,-85.9 46.9,-83.4C43.7,-80.2 42.2,-79.2 41.9,-80.2C40.9,-83.4 30.9,-91.8 26.2,-93.4C20.3,-95.4 6.1,-95.6 0,-93.7" style="fill:rgb(26,68,128);"/>
            </g>
        </g>
        <g transform="matrix(4.16667,0,0,4.16667,0,0)">
            <g transform="matrix(1,0,0,1,2620.08,1151.82)">
                <path d="M0,-94.3C-5.7,-92.5 -12.2,-88.5 -15.7,-84.8C-17.3,-83.1 -19,-82 -19.5,-82.3C-19.9,-82.6 -20.3,-85.3 -20.3,-88.3L-20.3,-93.7L-45.5,-93.7L-44.9,-90.6C-44.6,-88.9 -44.3,-67.5 -44.3,-43.1L-44.3,1.3L-16.3,1.3L-16.3,-29.1C-16.3,-46.1 -15.9,-60.7 -15.3,-62.1C-14.8,-63.5 -12.7,-66.4 -10.7,-68.7C-3.3,-76.9 10.5,-77.7 17.6,-70.3C23.1,-64.6 23.7,-60.8 23.7,-28L23.7,1.3L51.7,1.3L51.7,-26C51.7,-40.9 51.3,-57 50.7,-61.6C49,-76.5 42.1,-87.2 30.7,-92.6C26,-94.8 23.7,-95.2 14.7,-95.4C8,-95.6 2.7,-95.2 0,-94.3" style="fill:rgb(26,68,128);"/>
            </g>
        </g>
        <g transform="matrix(4.16667,0,0,4.16667,0,0)">
            <g transform="matrix(1,0,0,1,2760.88,1173.02)">
                <path d="M0,-95.2C4,-93.1 6.1,-91.2 8.4,-87.5C11.4,-82.6 11.4,-82.4 11.4,-68.5C11.4,-57.3 11,-53.8 9.7,-51.3C4.8,-42.3 -5.2,-37.7 -15.1,-39.7C-26.8,-42.2 -33.9,-51.2 -34.9,-64.9C-36.6,-88.7 -18.4,-104.5 0,-95.2M-30.3,-115C-45.9,-109.9 -57.8,-96.9 -61.6,-80.7C-69.7,-46.4 -47.3,-17.8 -14.3,-20.2C-6,-20.8 3.3,-24.7 8.7,-29.6L11.9,-32.7L11.9,-27C11.9,-13.3 5.4,-3.6 -5.7,-0.3C-13.9,2 -27.9,1.2 -38.8,-2.3C-43.4,-3.8 -47.4,-5 -47.8,-4.9C-48.6,-4.9 -54.1,10.6 -54.1,12.7C-54.1,14.5 -44.3,17.9 -33.8,19.7C-22.9,21.6 -5,21.1 4.4,18.6C17.9,15 28.2,7.3 33.2,-2.9C38.2,-13.1 38.8,-20.2 39.1,-69.7L39.4,-114.9L16.2,-114.9L15.5,-111.8C15.2,-110.1 14.9,-107.6 14.9,-106.2C14.9,-103.9 14.8,-103.9 11.4,-107.4C9.4,-109.3 5.5,-112.1 2.6,-113.6C-2,-116 -3.9,-116.3 -13.6,-116.6C-22.3,-116.8 -25.8,-116.5 -30.3,-115" style="fill:rgb(26,68,128);"/>
            </g>
        </g>
        <g transform="matrix(4.16667,0,0,4.16667,0,0)">
            <g transform="matrix(1,0,0,1,2922.58,1154.62)">
                <path d="M0,-96.9C-14,-93.6 -28,-83.3 -34,-71.9C-41.5,-58 -41.8,-39.4 -34.8,-25C-29.6,-14.2 -17,-4.6 -3.2,-1C11.3,2.8 44.2,-0.3 44.2,-5.5C44.2,-7.7 41.3,-21.7 40.7,-22.3C40.5,-22.5 37.5,-22 34,-21.1C30.4,-20.2 24.1,-19.5 19.9,-19.5C6.2,-19.5 -3.4,-24.8 -8.5,-35.3C-13.8,-46.1 -11.8,-61.6 -4,-69.8C4.2,-78.4 21.2,-81.3 35.8,-76.5C37.7,-75.8 39.5,-75.5 39.8,-75.8C40.1,-76 41.3,-80.2 42.6,-85.1C44.4,-91.6 44.7,-94.2 43.9,-94.7C38.1,-98.3 11.2,-99.7 0,-96.9" style="fill:rgb(26,68,128);"/>
            </g>
        </g>
        <g transform="matrix(4.16667,0,0,4.16667,0,0)">
            <g transform="matrix(1,0,0,1,3048.48,1134.12)">
                <path d="M0,-56.9C11.4,-51.4 17,-31.8 11.8,-15.5C9.4,-8 1.8,0.3 -4.2,1.9C-16.3,5.2 -27.5,-0.4 -32.9,-12.4C-34.9,-16.7 -35.2,-19.1 -35.2,-28.5C-35.2,-37.9 -34.9,-40.2 -32.9,-44.5C-26.6,-58.2 -13.2,-63.3 0,-56.9M-26.9,-76.4C-52.5,-70.2 -67.8,-46.8 -63.9,-19.9C-61.1,-0.5 -47.6,14.4 -28.1,19.4C-20,21.5 -3.4,21.5 4.6,19.4C27.9,13.4 42.3,-5.1 42.3,-29C42.3,-43.2 37.7,-54.7 28.4,-64C22.3,-70.2 13.2,-75.1 4.5,-76.9C-2.7,-78.4 -19.9,-78.1 -26.9,-76.4" style="fill:rgb(26,68,128);"/>
            </g>
        </g>
        <g transform="matrix(4.16667,0,0,4.16667,0,0)">
            <g transform="matrix(1,0,0,1,3157.68,1150.72)">
                <path d="M0,-92.3C-6.2,-89.7 -11.9,-85.6 -14.9,-81.7L-16.8,-79.1L-16.9,-84.3C-16.9,-92.9 -16.5,-92.6 -30.1,-92.6C-40.6,-92.6 -42,-92.4 -41.5,-91C-41.2,-90.1 -40.9,-68.8 -40.9,-43.5L-40.9,2.4L-13.9,2.4L-13.9,-27.4C-13.9,-56.5 -13.8,-57.2 -11.5,-62.1C-4.1,-78 16.2,-78.5 21.5,-62.9C22.8,-59.1 23.1,-53 23.1,-27.9L23.1,2.4L50,2.4L50.3,-28.9C50.6,-57.1 50.8,-60.5 52.5,-63.9C57.8,-74.6 73.2,-77.7 81.2,-69.7C86.4,-64.5 87.1,-59.3 87.1,-26.9L87.1,2.4L114.1,2.4L114.1,-29.9C114.1,-64.1 113.6,-68.8 109,-77.7C105.9,-83.9 98.9,-90.2 92.3,-92.6C87.6,-94.4 84.9,-94.7 76.6,-94.4C68,-94.1 65.8,-93.7 60.7,-91.2C57.4,-89.6 52.5,-86.1 49.7,-83.4C45.5,-79.4 44.5,-78.8 43.8,-80.1C41.5,-84.3 36.4,-88.8 30.9,-91.6C25.3,-94.3 23.9,-94.6 15.2,-94.6C7.5,-94.6 4.5,-94.1 0,-92.3" style="fill:rgb(26,68,128);"/>
            </g>
        </g>
        <g transform="matrix(4.16667,0,0,4.16667,0,0)">
            <g transform="matrix(1,0,0,1,650.784,1152.02)">
                <path d="M0,-92.8C0,-92.1 6.3,-72.2 14.1,-48.5C21.8,-24.8 28.6,-3.9 29.1,-2.2L30.2,1.1L56.5,1.1L64.7,-23.2C69.2,-36.5 73.7,-50.6 74.5,-54.4C75.4,-58.3 76.4,-62.1 76.7,-62.9C76.9,-63.7 78.4,-59.5 80,-53.4C81.5,-47.4 85.9,-32.7 89.8,-20.9L96.7,0.6L109.9,0.9C117.1,1 123,1 123,0.8C123,0.6 130.2,-20.3 139,-45.8C147.8,-71.2 155,-92.5 155,-93C155,-93.5 149.2,-93.9 141.6,-93.9L128.3,-93.9L124.5,-80.7C119.1,-61.3 112.3,-34.1 111.5,-28.6C111.1,-26 110.6,-24 110.3,-24.2C110.1,-24.5 108.6,-29.6 107,-35.5C105.4,-41.5 100.8,-57.1 96.8,-70.1L89.5,-93.9L66.4,-93.9L56.7,-62.6C51.4,-45.5 46.8,-29.9 46.4,-28.1C45.5,-23.6 44.3,-24.1 43.5,-29.5C43,-33.2 30.7,-83.6 28.4,-91.7C27.8,-93.8 27.4,-93.9 13.9,-93.9C4.1,-93.9 0,-93.6 0,-92.8" style="fill:rgb(26,68,128);"/>
            </g>
        </g>
        <g transform="matrix(4.16667,0,0,4.16667,0,0)">
            <g transform="matrix(1,0,0,1,815.784,1153.02)">
                <path d="M0,-94.7C0,-94.5 6.9,-73.3 15.3,-47.4L30.6,-0.4L56.8,0.2L58,-3.1C64.1,-19.9 72.7,-46.4 74.9,-55.1L77.6,-65.8L79.3,-58.6C80.3,-54.6 84.7,-39.8 89.2,-25.6L97.4,0.2L110.4,-0.1L123.5,-0.4L139.2,-45.9C147.9,-70.9 155.3,-92.2 155.6,-93.2C156.1,-94.8 155.2,-94.9 142.3,-94.7L128.5,-94.4L126.7,-87.9C121.2,-67.6 113.9,-39.3 112.4,-32.4L110.7,-24.4L107.5,-36.4C104.4,-48.1 102.1,-55.8 93.9,-82.2L89.9,-94.9L67.1,-94.9L62.1,-79.2C53,-50.4 47.1,-30.7 46.4,-27L45.7,-23.4L44.4,-29.4C43.7,-32.7 39.8,-48.8 35.8,-65.2L28.6,-94.9L14.3,-94.9C6.4,-94.9 0,-94.8 0,-94.7" style="fill:rgb(26,68,128);"/>
            </g>
        </g>
        <g transform="matrix(4.16667,0,0,4.16667,0,0)">
            <g transform="matrix(1,0,0,1,981.784,1152.52)">
                <path d="M0,-93.7C-0.1,-93.2 6.8,-71.9 15.2,-46.2L30.4,0.6L56.5,0.6L64.7,-23.7C69.2,-37 73.4,-49.9 74,-52.4C74.6,-54.9 75.6,-58.7 76.2,-60.9L77.2,-64.8L80,-53.9C81.6,-47.8 86,-33.2 89.8,-21.4L96.8,0.1L122.8,0.7L124.3,-3.6C125.1,-6 132.3,-26.9 140.4,-50.1C148.4,-73.3 155,-92.8 155,-93.4C155,-94 150.1,-94.4 141.5,-94.4C134.1,-94.4 128,-94.2 128,-94C128,-93.7 125.1,-82.8 121.5,-69.7C117.9,-56.6 113.9,-41 112.6,-34.9C110.6,-25.5 110.1,-24.3 109.5,-26.9C107.8,-33.6 99,-63.9 94.4,-78.7L89.5,-94.4L66.5,-94.4L57.3,-64.6C52.2,-48.3 47.5,-32.8 46.8,-30.2C46.1,-27.5 45.3,-25.4 44.9,-25.4C44.5,-25.4 43.9,-27.4 43.5,-29.9C43,-33.7 32.3,-78 28.9,-90.7L27.9,-94.4L14,-94.4C6.3,-94.4 0,-94.1 0,-93.7" style="fill:rgb(26,68,128);"/>
            </g>
        </g>
        <g transform="matrix(4.16667,0,0,4.16667,0,0)">
            <g transform="matrix(1,0,0,1,1401.78,1105.62)">
                <path d="M0,-47.5L0,47.5L27,47.5L27,-47.5L0,-47.5Z" style="fill:rgb(26,68,128);"/>
            </g>
        </g>
        <g transform="matrix(4.16667,0,0,4.16667,0,0)">
            <g transform="matrix(1,0,0,1,1961.78,1124.42)">
                <path d="M0,-36.1C0,-19.4 0.5,-2.9 1,0.7C3,13 9.2,22.2 19.3,27.5C24.2,30 25.3,30.2 37,30.2C48.6,30.2 49.9,30 55.5,27.4C58.8,25.9 63.6,22.5 66.3,19.9L71,15.3L71,20.4C71,28.9 70.6,28.7 84.3,28.7L96.3,28.7L95.6,21C95.3,16.8 95,-4.5 95,-26.5L95,-66.3L68,-66.3L68,-37.6C68,-1.4 67.3,1.5 57.2,7.4C53.5,9.6 51.2,10.2 46.5,10.2C38.9,10.2 34.4,7.7 31,1.6L28.5,-2.8L28.2,-34.6L27.9,-66.3L0,-66.3L0,-36.1Z" style="fill:rgb(26,68,128);"/>
            </g>
        </g>
        <g transform="matrix(4.16667,0,0,4.16667,0,0)">
            <g transform="matrix(1,0,0,1,2267.78,1105.62)">
                <path d="M0,-47.5L0,47.5L28,47.5L28,-47.5L0,-47.5Z" style="fill:rgb(26,68,128);"/>
            </g>
        </g>
        <g transform="matrix(4.16667,0,0,4.16667,0,0)">
            <g transform="matrix(1,0,0,1,2515.78,1105.62)">
                <path d="M0,-47.5L0,47.5L27,47.5L27,-47.5L0,-47.5Z" style="fill:rgb(26,68,128);"/>
            </g>
        </g>
        <g transform="matrix(4.16667,0,0,4.16667,0,0)">
            <g transform="matrix(1,0,0,1,1161.98,1153.12)">
                <path d="M0,-26.9C-4,-24.3 -7.2,-18.4 -7.2,-13.5C-7.2,-8.6 -3.9,-2.6 0.1,-0.1C4.9,2.9 14.7,2.8 19.6,-0.2C23.4,-2.5 26.8,-8.7 26.8,-13.5C26.8,-18.3 23.4,-24.5 19.6,-26.8C14.7,-29.8 4.7,-29.8 0,-26.9" style="fill:rgb(26,68,128);"/>
            </g>
        </g>
        <g transform="matrix(4.16667,0,0,4.16667,0,0)">
            <g transform="matrix(1,0,0,1,2836.68,1153.72)">
                <path d="M0,-27.3C-1.9,-26.1 -4.2,-23.5 -5.1,-21.6C-8.8,-14.4 -6.5,-5.2 0,-0.9C4.8,2.3 14.4,2.3 19.1,-0.9C24.6,-4.6 26.5,-8 26.5,-13.9C26.5,-24.1 20.5,-29.6 9.3,-29.6C4.8,-29.6 2.6,-29.1 0,-27.3" style="fill:rgb(26,68,128);"/>
            </g>
        </g>
    </g>
</svg>
